<mxfile host="app.diagrams.net" modified="2020-10-22T10:25:39.915Z" agent="5.0 (Windows NT 10.0; Win64; x64) AppleWebKit/537.36 (KHTML, like Gecko) Chrome/86.0.4240.111 Safari/537.36" etag="DytoraQyqIyrOZpWzEDn" version="13.8.1" type="github">
  <diagram name="Page-1" id="929967ad-93f9-6ef4-fab6-5d389245f69c">
    <mxGraphModel dx="460" dy="784" grid="1" gridSize="10" guides="1" tooltips="1" connect="1" arrows="1" fold="1" page="1" pageScale="1.5" pageWidth="1169" pageHeight="826" background="none" math="0" shadow="0">
      <root>
        <mxCell id="0" style=";html=1;" />
        <mxCell id="1" style=";html=1;" parent="0" />
        <mxCell id="1672d66443f91eb5-23" value="Title" style="text;strokeColor=none;fillColor=none;html=1;fontSize=24;fontStyle=1;verticalAlign=middle;align=center;" parent="1" vertex="1">
          <mxGeometry x="120" y="40" width="1510" height="40" as="geometry" />
        </mxCell>
        <mxCell id="ctOwVdoK-H95z-3-qGXq-26" value="" style="shape=folder;fontStyle=1;spacingTop=10;tabWidth=160;tabHeight=30;tabPosition=left;html=1;" vertex="1" parent="1">
          <mxGeometry x="40" y="360" width="160" height="440" as="geometry" />
        </mxCell>
        <mxCell id="ctOwVdoK-H95z-3-qGXq-30" value="User" style="text;align=center;fontStyle=1;verticalAlign=middle;spacingLeft=3;spacingRight=3;strokeColor=none;rotatable=0;points=[[0,0.5],[1,0.5]];portConstraint=eastwest;" vertex="1" parent="1">
          <mxGeometry x="80" y="360" width="80" height="26" as="geometry" />
        </mxCell>
        <mxCell id="ctOwVdoK-H95z-3-qGXq-31" value="" style="shape=folder;fontStyle=1;spacingTop=10;tabWidth=160;tabHeight=30;tabPosition=left;html=1;" vertex="1" parent="1">
          <mxGeometry x="200" y="360" width="160" height="440" as="geometry" />
        </mxCell>
        <mxCell id="ctOwVdoK-H95z-3-qGXq-32" value="" style="shape=folder;fontStyle=1;spacingTop=10;tabWidth=160;tabHeight=30;tabPosition=left;html=1;" vertex="1" parent="1">
          <mxGeometry x="360" y="360" width="160" height="440" as="geometry" />
        </mxCell>
        <mxCell id="ctOwVdoK-H95z-3-qGXq-33" value="System" style="text;align=center;fontStyle=1;verticalAlign=middle;spacingLeft=3;spacingRight=3;strokeColor=none;rotatable=0;points=[[0,0.5],[1,0.5]];portConstraint=eastwest;" vertex="1" parent="1">
          <mxGeometry x="240" y="360" width="80" height="26" as="geometry" />
        </mxCell>
        <mxCell id="ctOwVdoK-H95z-3-qGXq-34" value="UI" style="text;align=center;fontStyle=1;verticalAlign=middle;spacingLeft=3;spacingRight=3;strokeColor=none;rotatable=0;points=[[0,0.5],[1,0.5]];portConstraint=eastwest;" vertex="1" parent="1">
          <mxGeometry x="400" y="360" width="80" height="26" as="geometry" />
        </mxCell>
        <mxCell id="ctOwVdoK-H95z-3-qGXq-35" value="" style="ellipse;html=1;shape=startState;fillColor=#000000;strokeColor=#ff0000;" vertex="1" parent="1">
          <mxGeometry x="105" y="400" width="30" height="30" as="geometry" />
        </mxCell>
        <mxCell id="ctOwVdoK-H95z-3-qGXq-36" value="" style="edgeStyle=orthogonalEdgeStyle;html=1;verticalAlign=bottom;endArrow=open;endSize=8;strokeColor=#ff0000;" edge="1" source="ctOwVdoK-H95z-3-qGXq-35" parent="1">
          <mxGeometry relative="1" as="geometry">
            <mxPoint x="120" y="460" as="targetPoint" />
          </mxGeometry>
        </mxCell>
        <mxCell id="ctOwVdoK-H95z-3-qGXq-37" value="click on &quot;edit&quot; button" style="rounded=1;whiteSpace=wrap;html=1;arcSize=40;fontColor=#000000;fillColor=#ffffc0;strokeColor=#ff0000;" vertex="1" parent="1">
          <mxGeometry x="60" y="460" width="120" height="40" as="geometry" />
        </mxCell>
        <mxCell id="ctOwVdoK-H95z-3-qGXq-38" value="" style="edgeStyle=orthogonalEdgeStyle;html=1;verticalAlign=bottom;endArrow=open;endSize=8;strokeColor=#ff0000;exitX=0.5;exitY=1;exitDx=0;exitDy=0;entryX=0;entryY=0.5;entryDx=0;entryDy=0;" edge="1" source="ctOwVdoK-H95z-3-qGXq-37" parent="1" target="ctOwVdoK-H95z-3-qGXq-39">
          <mxGeometry relative="1" as="geometry">
            <mxPoint x="120" y="560" as="targetPoint" />
            <Array as="points">
              <mxPoint x="120" y="510" />
            </Array>
          </mxGeometry>
        </mxCell>
        <mxCell id="ctOwVdoK-H95z-3-qGXq-39" value="redirect edit page" style="rounded=1;whiteSpace=wrap;html=1;arcSize=40;fontColor=#000000;fillColor=#ffffc0;strokeColor=#ff0000;" vertex="1" parent="1">
          <mxGeometry x="390" y="490" width="120" height="40" as="geometry" />
        </mxCell>
        <mxCell id="ctOwVdoK-H95z-3-qGXq-40" value="" style="edgeStyle=orthogonalEdgeStyle;html=1;verticalAlign=bottom;endArrow=open;endSize=8;strokeColor=#ff0000;entryX=1;entryY=0.5;entryDx=0;entryDy=0;" edge="1" source="ctOwVdoK-H95z-3-qGXq-39" parent="1" target="ctOwVdoK-H95z-3-qGXq-41">
          <mxGeometry relative="1" as="geometry">
            <mxPoint x="450" y="590" as="targetPoint" />
            <Array as="points">
              <mxPoint x="450" y="580" />
            </Array>
          </mxGeometry>
        </mxCell>
        <mxCell id="ctOwVdoK-H95z-3-qGXq-41" value="Change data and save" style="rounded=1;whiteSpace=wrap;html=1;arcSize=40;fontColor=#000000;fillColor=#ffffc0;strokeColor=#ff0000;" vertex="1" parent="1">
          <mxGeometry x="60" y="560" width="120" height="40" as="geometry" />
        </mxCell>
        <mxCell id="ctOwVdoK-H95z-3-qGXq-42" value="" style="edgeStyle=orthogonalEdgeStyle;html=1;verticalAlign=bottom;endArrow=open;endSize=8;strokeColor=#ff0000;entryX=0;entryY=0.5;entryDx=0;entryDy=0;" edge="1" source="ctOwVdoK-H95z-3-qGXq-41" parent="1">
          <mxGeometry relative="1" as="geometry">
            <mxPoint x="220" y="650" as="targetPoint" />
            <Array as="points">
              <mxPoint x="120" y="650" />
            </Array>
          </mxGeometry>
        </mxCell>
        <mxCell id="ctOwVdoK-H95z-3-qGXq-48" value="Show confirmation dialog" style="rounded=1;whiteSpace=wrap;html=1;arcSize=40;fontColor=#000000;fillColor=#ffffc0;strokeColor=#ff0000;" vertex="1" parent="1">
          <mxGeometry x="390" y="630" width="120" height="40" as="geometry" />
        </mxCell>
        <mxCell id="ctOwVdoK-H95z-3-qGXq-49" value="" style="edgeStyle=orthogonalEdgeStyle;html=1;verticalAlign=bottom;endArrow=open;endSize=8;strokeColor=#ff0000;entryX=0.5;entryY=0;entryDx=0;entryDy=0;" edge="1" source="ctOwVdoK-H95z-3-qGXq-48" parent="1" target="ctOwVdoK-H95z-3-qGXq-54">
          <mxGeometry relative="1" as="geometry">
            <mxPoint x="450" y="700" as="targetPoint" />
          </mxGeometry>
        </mxCell>
        <mxCell id="ctOwVdoK-H95z-3-qGXq-52" value="Update profile information" style="rounded=1;whiteSpace=wrap;html=1;arcSize=40;fontColor=#000000;fillColor=#ffffc0;strokeColor=#ff0000;" vertex="1" parent="1">
          <mxGeometry x="220" y="630" width="120" height="40" as="geometry" />
        </mxCell>
        <mxCell id="ctOwVdoK-H95z-3-qGXq-53" value="" style="edgeStyle=orthogonalEdgeStyle;html=1;verticalAlign=bottom;endArrow=open;endSize=8;strokeColor=#ff0000;entryX=0;entryY=0.5;entryDx=0;entryDy=0;" edge="1" source="ctOwVdoK-H95z-3-qGXq-52" parent="1" target="ctOwVdoK-H95z-3-qGXq-48">
          <mxGeometry relative="1" as="geometry">
            <mxPoint x="280" y="730" as="targetPoint" />
          </mxGeometry>
        </mxCell>
        <mxCell id="ctOwVdoK-H95z-3-qGXq-54" value="redirect user profile page" style="rounded=1;whiteSpace=wrap;html=1;arcSize=40;fontColor=#000000;fillColor=#ffffc0;strokeColor=#ff0000;" vertex="1" parent="1">
          <mxGeometry x="390" y="700" width="120" height="40" as="geometry" />
        </mxCell>
        <mxCell id="ctOwVdoK-H95z-3-qGXq-55" value="" style="edgeStyle=orthogonalEdgeStyle;html=1;verticalAlign=bottom;endArrow=open;endSize=8;strokeColor=#ff0000;entryX=0.5;entryY=0;entryDx=0;entryDy=0;" edge="1" source="ctOwVdoK-H95z-3-qGXq-54" parent="1" target="ctOwVdoK-H95z-3-qGXq-59">
          <mxGeometry relative="1" as="geometry">
            <mxPoint x="280" y="840" as="targetPoint" />
          </mxGeometry>
        </mxCell>
        <mxCell id="ctOwVdoK-H95z-3-qGXq-59" value="" style="ellipse;html=1;shape=endState;fillColor=#000000;strokeColor=#ff0000;" vertex="1" parent="1">
          <mxGeometry x="435" y="770" width="30" height="30" as="geometry" />
        </mxCell>
      </root>
    </mxGraphModel>
  </diagram>
</mxfile>
